<?xml version="1.0" encoding="utf-8"?>
<!-- Generator: Adobe Illustrator 25.2.3, SVG Export Plug-In . SVG Version: 6.00 Build 0)  -->
<svg version="1.1" id="Layer_1" xmlns="http://www.w3.org/2000/svg" xmlns:xlink="http://www.w3.org/1999/xlink" x="0px" y="0px"
	 viewBox="0 0 640 512" style="enable-background:new 0 0 640 512;" xml:space="preserve">
<style type="text/css">
	.st0{fill:#FFFFFF;}
</style>
<path class="st0" d="M48,0C21.5,0,0,21.5,0,48v320c0,26.5,21.5,48,48,48h16c0,53,43,96,96,96s96-43,96-96h128c0,53,43,96,96,96
	s96-43,96-96h32c17.7,0,32-14.3,32-32s-14.3-32-32-32v-64v-32v-18.7c0-17-6.7-33.3-18.7-45.3L512,114.7c-12-12-28.3-18.7-45.3-18.7
	H416V48c0-26.5-21.5-48-48-48H48z M416,160h50.7l77.3,77.3V256H416V160z M112,416c0-26.5,21.5-48,48-48s48,21.5,48,48
	s-21.5,48-48,48S112,442.5,112,416z M480,368c26.5,0,48,21.5,48,48s-21.5,48-48,48s-48-21.5-48-48S453.5,368,480,368z"/>
</svg>
